<?xml version="1.0" encoding="utf-8"?>
<!-- Generator: Adobe Illustrator 21.0.2, SVG Export Plug-In . SVG Version: 6.00 Build 0)  -->
<svg version="1.1" xmlns="http://www.w3.org/2000/svg" xmlns:xlink="http://www.w3.org/1999/xlink" x="0px" y="0px" width="2272px"
	 height="1600px" viewBox="0 0 2272 1600" enable-background="new 0 0 2272 1600" xml:space="preserve">
<g id="BG">
	<linearGradient id="SVGID_1_" gradientUnits="userSpaceOnUse" x1="0" y1="662.5151" x2="2272" y2="662.5151">
		<stop  offset="0" style="stop-color:#767095"/>
		<stop  offset="0.2377" style="stop-color:#A9A2D0"/>
		<stop  offset="0.7902" style="stop-color:#A9A2D0"/>
		<stop  offset="1" style="stop-color:#767095"/>
	</linearGradient>
	<rect fill="url(#SVGID_1_)" width="2272" height="1325.03"/>
	<rect y="1325.03" fill="#8E72B1" width="2272" height="274.97"/>
</g>
<g id="Layer_1">
	<g>
		<path fill="#79619C" d="M1725.755,1492.116H348.475c-10.413,0-18.933-8.52-18.933-18.933l0,0c0-10.413,8.52-18.933,18.933-18.933
			h1377.28c10.413,0,18.933,8.52,18.933,18.933l0,0C1744.688,1483.596,1736.169,1492.116,1725.755,1492.116z"/>
		<path fill="#DCDEDC" d="M1344.058,1389.612h-41.965v21.66h46.132c4.82-5.208,7.252-8.798,7.252-8.798h-7.953
			C1347.525,1402.474,1346.273,1397.868,1344.058,1389.612z"/>
		<path fill="#2D2A70" d="M1497.07,774.106h-106.687c-2.442,2.854-4.902,5.69-7.395,8.493c-12.641,0.742-25.467,1.167-38.369,1.167
			c-25.543,0-51.683-3.466-77.383-9.66h-149.141h-20.988h-60.792h-0.719h-12.854h-15.721h-2.955h-12.854h-69.428h-20.988H590.623
			h-74.254h-68.06v41.26h36.354h1023.442C1505.291,801.411,1501.614,787.604,1497.07,774.106z"/>
		<rect x="528.655" y="1445.83" fill="#39383D" width="23.185" height="27.352"/>
		<rect x="767.987" y="846.999" fill="#DCDEDC" width="23.185" height="542.614"/>
		<rect x="767.987" y="1411.273" fill="#DCDEDC" width="23.185" height="34.558"/>
		<rect x="767.987" y="1445.83" fill="#39383D" width="23.185" height="27.352"/>
		<path fill="#FFFFFF" d="M1278.909,955.764c1.319-0.556,2.641-1.113,3.972-1.669h-3.972V955.764z"/>
		<path fill="#FFFFFF" d="M1302.094,1389.612v-162.389c-7.941-32.003-15.964-65.266-23.185-96.864v145.295
			c5.14,52.571,8.844,101.142,8.161,126.82h-9.987l0.169,8.798h1.657v34.558h13.368c3.409-0.958,6.68-2.049,9.817-3.243v-31.314
			V1389.612z"/>
		<path fill="#39383D" d="M1278.909,1448.746c4.667-0.73,9.121-1.722,13.368-2.916h-13.368V1448.746z"/>
		<path fill="#DCDEDC" d="M1541.426,1411.273v-21.66v-235.983h-23.185v235.983h-89.658c0.663,4.795,1.211,9.109,1.627,12.862
			h-15.741l0.169,8.798h103.602v33.038h23.185V1411.273z"/>
		<rect x="1518.241" y="1473.18" fill="#39383D" width="23.185" height="0.002"/>
		<path fill="#FFFFFF" d="M1204.383,1402.474c0,0-0.767-4.597-2.103-12.862H791.172h-23.185H551.84V846.999h216.148h23.185h333.586
			h53.6h100.551h23.185h185.732h25.128c-1.118-10.586-2.736-21.151-4.849-31.633H484.663v31.633h43.992v598.832h23.185v-34.558
			h216.148h23.185h419.999c4.638-5.206,6.928-8.798,6.928-8.798H1204.383z"/>
		<rect x="1124.758" y="846.999" fill="#21234C" width="53.6" height="107.096"/>
		<path fill="#2D2A70" d="M1278.909,954.095h3.972c67.323-28.136,150.904-56.425,231.944-72.115
			c-0.002-11.624-0.639-23.313-1.871-34.981h-25.128h-185.732h-23.185h-100.551v107.096H1278.909z M1334.221,867.939
			c0-4.846,3.965-8.811,8.811-8.811h64.497c4.846,0,8.811,3.965,8.811,8.811v1.177c0,4.846-3.965,8.811-8.811,8.811h-64.497
			c-4.846,0-8.811-3.965-8.811-8.811V867.939z"/>
		<path fill="#FFFFFF" d="M1343.033,877.928h64.497c4.846,0,8.811-3.965,8.811-8.811v-1.177c0-4.846-3.965-8.811-8.811-8.811
			h-64.497c-4.846,0-8.811,3.965-8.811,8.811v1.177C1334.221,873.963,1338.187,877.928,1343.033,877.928z"/>
		<rect x="991.212" y="659.592" fill="#323135" width="12.854" height="96.053"/>
		<path fill="#323135" d="M921.783,773.911c0-10.088,8.178-18.266,18.266-18.266h-20.988c-10.088,0-18.266,8.178-18.266,18.266
			v0.195h20.988V773.911z"/>
		<path fill="#39383D" d="M921.783,773.911v0.195h69.428h12.854h2.955v-17.818c0-8.784,7.121-15.904,15.904-15.904h12.67v-80.792
			h310.189c2.845-8.403,6.305-17.458,10.264-26.963H668.467V189.103h697.732c10.195-7.469,22.818-11.785,35.998-11.785
			c0.924,0,1.828,0.027,2.732,0.053V162.14h-26.397H642.07v497.452h349.142h12.854v96.053h-12.854h-51.162
			C929.961,755.645,921.783,763.823,921.783,773.911z"/>
		<rect x="615.672" y="162.14" fill="#323135" width="26.397" height="497.452"/>
		<path fill="#39383D" d="M1404.929,535.249v-104.5c-8.642,2.393-17.534,4.005-26.397,4.948V584.12
			C1386.711,567.906,1395.651,551.372,1404.929,535.249z"/>
		<path fill="#8E72B1" d="M1378.532,435.698c-1.141,0.121-2.281,0.232-3.42,0.332c-4.673,0.409-8.747-3.144-9.003-7.828
			c-1.159-21.212-4.112-51.924-4.112-51.924l-33.497-1.84l23.282-41.291c-0.237-0.897-0.376-1.833-0.376-2.803v-2
			c0-4.027,2.182-7.546,5.419-9.463c0.654-12.136,2.285-39.591,4.057-47.772c-7.953-9.954-21.204-26.607-16.932-47.712
			c2.872-14.211,11.111-26.134,22.248-34.294H668.467v443.526h687.581c6.362-15.275,14.013-31.717,22.484-48.508V435.698z
			 M915.757,366.842c0-11.833,9.391-21.426,20.976-21.426h6.108v-67.192c0-25.339,20.643-45.954,46.017-45.954h8.595h31.304h8.595
			c25.374,0,46.017,20.615,46.017,45.954v67.192h1.743c11.585,0,20.976,9.593,20.976,21.426v92.323
			c0,13.578-7.316,26.055-19.035,32.463l-61.031,33.371c-3.51,1.919-7.341,2.958-11.199,3.133l0.003,0.034h-8.903l-0.005-0.006
			c-4.377,0.01-8.754-1.093-12.707-3.319l-58.81-33.122c-11.5-6.477-18.643-18.83-18.643-32.245V366.842z M1113.852,562.391
			c0,10.014-8.193,18.207-18.206,18.207H936.155c-10.013,0-18.206-8.193-18.206-18.207v-0.389c0-10.013,8.193-18.206,18.206-18.206
			h159.492c10.014,0,18.206,8.193,18.206,18.206V562.391z"/>
		<path fill="#8E72B1" d="M1356.533,324.548c-0.286,0.44-0.52,0.916-0.702,1.417l0.692-1.228
			C1356.524,324.737,1356.527,324.668,1356.533,324.548z"/>
		<path fill="#8E72B1" d="M1064.774,278.223c0-19.825-16.157-35.954-36.017-35.954h-31.304c-19.86,0-36.017,16.129-36.017,35.954
			v67.192h103.338V278.223z"/>
		<path fill="#F2F2F3" d="M1095.646,543.796H936.155c-10.013,0-18.206,8.193-18.206,18.206v0.389
			c0,10.014,8.193,18.207,18.206,18.207h159.492c10.014,0,18.206-8.193,18.206-18.207v-0.389
			C1113.852,551.989,1105.66,543.796,1095.646,543.796z M962.836,570.054l-2.897,2.242l-4.345-6.872l-4.205,6.706l-2.92-2.171
			l4.696-6.586l-7.055-2.146l1.075-3.599l7.055,2.67l-0.21-8.201h3.574l-0.233,8.319l6.938-2.622l1.075,3.623l-7.172,2.169
			L962.836,570.054z M992.053,570.054l-2.897,2.242l-4.345-6.872l-4.205,6.706l-2.92-2.171l4.696-6.586l-7.055-2.146l1.075-3.599
			l7.055,2.67l-0.21-8.201h3.574l-0.233,8.319l6.938-2.622l1.075,3.623l-7.172,2.169L992.053,570.054z M1021.27,570.054
			l-2.897,2.242l-4.345-6.872l-4.205,6.706l-2.92-2.171l4.696-6.586l-7.055-2.146l1.075-3.599l7.055,2.67l-0.21-8.201h3.574
			l-0.233,8.319l6.938-2.622l1.075,3.623l-7.172,2.169L1021.27,570.054z M1050.487,570.054l-2.897,2.242l-4.345-6.872l-4.205,6.706
			l-2.92-2.171l4.696-6.586l-7.055-2.146l1.075-3.599l7.055,2.67l-0.21-8.201h3.574l-0.233,8.319l6.938-2.622l1.075,3.623
			l-7.172,2.169L1050.487,570.054z M1079.704,570.054l-2.897,2.242l-4.345-6.872l-4.205,6.706l-2.92-2.171l4.696-6.586l-7.055-2.146
			l1.075-3.599l7.055,2.67l-0.21-8.201h3.574l-0.233,8.319l6.938-2.622l1.075,3.623l-7.172,2.169L1079.704,570.054z"/>
		<polygon fill="#39383D" points="964.308,557.794 957.37,560.416 957.603,552.097 954.029,552.097 954.239,560.297 
			947.184,557.627 946.109,561.226 953.164,563.372 948.469,569.958 951.389,572.13 955.594,565.424 959.939,572.296 
			962.836,570.054 958.211,563.586 965.383,561.417 		"/>
		<polygon fill="#39383D" points="993.525,557.794 986.587,560.416 986.82,552.097 983.246,552.097 983.456,560.297 
			976.401,557.627 975.326,561.226 982.381,563.372 977.686,569.958 980.606,572.13 984.811,565.424 989.156,572.296 
			992.053,570.054 987.427,563.586 994.6,561.417 		"/>
		<polygon fill="#39383D" points="1022.742,557.794 1015.804,560.416 1016.037,552.097 1012.463,552.097 1012.673,560.297 
			1005.618,557.627 1004.543,561.226 1011.598,563.372 1006.903,569.958 1009.823,572.13 1014.028,565.424 1018.373,572.296 
			1021.27,570.054 1016.644,563.586 1023.817,561.417 		"/>
		<polygon fill="#39383D" points="1051.959,557.794 1045.021,560.416 1045.254,552.097 1041.68,552.097 1041.89,560.297 
			1034.835,557.627 1033.76,561.226 1040.816,563.372 1036.12,569.958 1039.04,572.13 1043.245,565.424 1047.59,572.296 
			1050.487,570.054 1045.862,563.586 1053.034,561.417 		"/>
		<polygon fill="#39383D" points="1081.176,557.794 1074.238,560.416 1074.471,552.097 1070.897,552.097 1071.107,560.297 
			1064.052,557.627 1062.977,561.226 1070.032,563.372 1065.337,569.958 1068.257,572.13 1072.462,565.424 1076.807,572.296 
			1079.704,570.054 1075.078,563.586 1082.251,561.417 		"/>
		<path fill="#45267F" d="M934.4,491.718l58.81,33.122c3.953,2.226,8.33,3.33,12.707,3.319l0.005,0.006h8.903l-0.003-0.034
			c-4.741,0.215-9.524-0.878-13.808-3.292l-58.81-33.122c-11.5-6.477-18.643-18.83-18.643-32.245v-92.632
			c0-11.832,9.389-21.423,20.972-21.426h-1.691v0h-6.108c-11.585,0-20.976,9.593-20.976,21.426v92.632
			C915.757,472.888,922.899,485.241,934.4,491.718z"/>
		<path fill="#5A3D90" d="M1074.774,345.416h-1.405h-8.595v0H961.437v0h-8.595h-1.405h-6.904
			c-11.583,0.003-20.972,9.594-20.972,21.426v92.632c0,13.415,7.142,25.768,18.643,32.245l58.81,33.122
			c4.284,2.413,9.068,3.506,13.808,3.292c3.858-0.175,7.688-1.214,11.199-3.133l61.031-33.371
			c11.719-6.408,19.035-18.885,19.035-32.463v-92.323c0-11.833-9.391-21.426-20.976-21.426h-1.743v0H1074.774z M987.469,404.094
			c0-13.765,10.4-25.041,23.611-26.097c0,0-0.001,0-0.001,0c0.002,0,0.003,0,0.005,0c0.668-0.053,1.341-0.089,2.022-0.089
			c14.159,0,25.637,11.724,25.637,26.186c0,7.627-3.194,14.49-8.288,19.276l10.174,53.355h-4.054h-50.991l10.174-53.355
			C990.663,418.584,987.469,411.721,987.469,404.094z"/>
		<path fill="#45267F" d="M1036.574,476.725l-10.174-53.355c5.094-4.786,8.288-11.649,8.288-19.276
			c0-13.764-10.399-25.04-23.609-26.097c-13.211,1.056-23.611,12.333-23.611,26.097c0,7.627,3.194,14.49,8.288,19.276
			l-10.174,53.355H1036.574z"/>
		<path fill="#45267F" d="M1011.083,377.996c0.668-0.053,1.341-0.089,2.022-0.089
			C1012.424,377.908,1011.751,377.943,1011.083,377.996z"/>
		<path fill="#3C2772" d="M1034.688,404.094c0,7.627-3.194,14.49-8.288,19.276l10.174,53.355h4.054l-10.174-53.355
			c5.094-4.786,8.288-11.649,8.288-19.276c0-14.462-11.478-26.186-25.637-26.186c-0.681,0-1.354,0.035-2.022,0.089
			c-0.002,0-0.003,0-0.005,0c0,0,0.001,0,0.001,0C1024.289,379.054,1034.688,390.33,1034.688,404.094z"/>
		<path fill="#DCDEDC" d="M1064.774,278.223v67.192v0h8.595v-67.192c0-19.825-16.157-35.954-36.017-35.954h-8.595
			C1048.617,242.269,1064.774,258.398,1064.774,278.223z"/>
		<path fill="#DCDEDC" d="M944.533,345.416h6.904v-67.192c0-25.339,20.643-45.954,46.017-45.954h-8.595
			c-25.374,0-46.017,20.615-46.017,45.954v67.192v0H944.533z"/>
		<path fill="#FFFFFF" d="M951.437,278.223v67.192h1.405h8.595v0v-67.192c0-19.825,16.157-35.954,36.017-35.954h31.304h8.595
			c19.86,0,36.017,16.129,36.017,35.954v67.192h1.405h8.595v0v-67.192c0-25.339-20.643-45.954-46.017-45.954h-8.595h-31.304
			C972.08,232.269,951.437,252.884,951.437,278.223z"/>
		<path fill="#323135" d="M1052.219,740.384h-16.624h-12.67c-8.784,0-15.904,7.121-15.904,15.904v17.818h15.721h12.854h0.719
			v-17.818C1036.314,747.504,1043.435,740.384,1052.219,740.384z"/>
		<path fill="#39383D" d="M1118.423,740.384c-2.352,7.59-3.407,14.112-3.497,14.131c-7.598,1.556-8.83-2.838-9.327-5.37
			c-0.339-1.728-0.567-4.869-0.326-8.761h-14.698c-1.461,1.286-3.149,2.226-5.206,2.647c-2.936,0.601-3.047,0.224-3.598-2.647
			h-29.553c-8.784,0-15.905,7.121-15.905,15.904v17.818h60.792h20.988h149.141c-31.454-7.581-62.243-19.259-90.473-33.722H1118.423z
			"/>
		<path fill="#FFFFFF" d="M1781.556,840.273c-5.357,0-10.476-1.01-15.189-2.833c-4.402,35.108-12.377,69.121-23.867,101.587
			c-15.562,43.97-37.271,84.185-64.612,119.798h23.468c1.248,0,2.475,0.088,3.681,0.243c24.215-34.1,43.75-71.865,58.202-112.7
			c12.068-34.097,20.429-69.798,25.015-106.63C1786.073,840.086,1783.837,840.273,1781.556,840.273L1781.556,840.273z"/>
		<path fill="#F7F3F9" d="M1135.069,717.272c4.926-0.856,11.186,1.784,18.404,5.085c-0.117-1.514-0.184-3.032-0.184-4.552
			c0-10.157,2.504-20.399,5.929-29.989c-24.129-8.097-53.217-21.554-77.467-16.588c-10.168,2.082-27.443,8.88-25.05,21.075
			c1.02,5.195,5.373,3.19,7.603,1.748c8.398-5.433,16.415-7.081,26.238-8.327c-15.112,8.496-28.785,20.63-26.106,37.654
			c0.354,2.247,1.485,3.318,3.42,2.922c7.666-1.57,18.499-26.749,35.025-31.899c-10.384,10.087-24.342,29.505-21.257,45.223
			c0.054,0.273,0.101,0.523,0.147,0.761c0.551,2.871,0.662,3.248,3.598,2.647c2.056-0.421,3.745-1.361,5.206-2.647
			c8.861-7.803,9.021-28.821,27.797-30.454c-9.591,8.945-12.553,21.635-13.099,30.454c-0.241,3.892-0.013,7.033,0.326,8.761
			c0.497,2.531,1.729,6.926,9.327,5.37c0.09-0.019,1.144-6.541,3.497-14.131C1121.499,730.46,1126.794,718.711,1135.069,717.272z"/>
		<path fill="#F7F3F9" d="M1495.296,337.204c0-13.516-6.335-28.071-19.141-28.259h-0.145c-7.197,0-11.605,7.856-15.838,14.01
			c-2.712,12.002-5.696,23.945-7.226,36.085c-2.758-9.397-4.502-18.999-5.465-28.698h-49.075c0,6.065-4.935,11-11,11h-25
			c-5.095,0-9.38-3.487-10.624-8.197l-23.282,41.291l33.497,1.84c0,0,2.952,30.712,4.112,51.924
			c0.256,4.684,4.329,8.238,9.003,7.828c1.139-0.1,2.28-0.211,3.42-0.332c8.863-0.944,17.755-2.555,26.397-4.948
			c7.828-2.167,15.45-4.975,22.657-8.521c3.123,7.752,8.9,20.302,13.841,31.325c12.502-24.263,30.484-43.674,51.259-57.895
			c-4.013-7.471-6.996-14.594-9.014-21.36c-1.017-3.414-1.792-6.728-2.335-9.954C1493.301,360.05,1495.296,343.467,1495.296,337.204
			z"/>
		<path fill="#F7F3F9" d="M1387.406,321.343h-25c-2.461,0-4.625,1.28-5.873,3.205c-0.006,0.119-0.009,0.188-0.009,0.188
			l-0.692,1.228c-0.27,0.744-0.425,1.542-0.425,2.378v2c0,3.86,3.141,7,7,7h25c3.859,0,7-3.14,7-7v-2
			C1394.406,324.483,1391.266,321.343,1387.406,321.343z"/>
		<path fill="#F7F3F9" d="M1362.406,317.343h9.567c-1.423-1.339-2.317-3.235-2.317-5.343c0-4.056,3.288-7.343,7.343-7.343
			s7.343,3.288,7.343,7.343c0,2.108-0.894,4.004-2.317,5.343h5.38c5.382,0,9.865,3.887,10.809,9h48.91
			c-0.404-5.23-0.592-10.484-0.592-15.746c0-9.983,0.668-19.987,1.753-29.921c-19.935-1.375-39.232-7.263-56.648-16.999
			c-9.474,4.7-20.129,7.035-30.755,7.431c-1.772,8.181-3.403,35.636-4.057,47.772
			C1358.464,317.91,1360.368,317.343,1362.406,317.343z M1364.57,293.635c3.126-2.284,7.197-3.594,11.171-3.594
			c6.042,0,10.896,2.861,13.315,7.85c0.481,0.994,0.066,2.19-0.927,2.672c-0.281,0.137-0.579,0.201-0.872,0.201
			c-0.742,0-1.455-0.415-1.801-1.127c-1.725-3.557-5.266-5.596-9.716-5.596c-3.144,0-6.355,1.029-8.812,2.824
			c-0.892,0.653-2.144,0.457-2.795-0.435C1363.483,295.538,1363.679,294.287,1364.57,293.635z"/>
		<path fill="#E83854" d="M1441.427,453.553c-2.363,4.587-4.553,9.327-6.505,14.259l7.244,7.874
			c1.833-2.677,3.659-5.307,5.472-7.874c21.175-29.961,40.781-52.065,53.839-57.676l-8.403-14.752
			c-0.13,0.089-0.257,0.184-0.387,0.273C1471.911,409.879,1453.929,429.29,1441.427,453.553z"/>
		<path fill="#E83854" d="M1159.217,687.816c-3.425,9.59-5.929,19.832-5.929,29.989c0,1.52,0.067,3.038,0.184,4.552
			c0.15,1.938,0.39,3.87,0.752,5.788c2.764,1.409,5.808,2.377,8.893,2.725c-1.208-9.161,2.831-37.104,6.635-43.671
			c-3.333-0.83-7.994-2.056-9.394-2.482C1159.968,685.741,1159.589,686.776,1159.217,687.816z"/>
		<path fill="#EA4E7A" d="M1463.116,703.23c-0.887-1.371-1.785-2.734-2.694-4.089
			C1461.331,700.496,1462.229,701.859,1463.116,703.23z"/>
		<path fill="#EA4E7A" d="M1459.33,697.531c-0.767-1.127-1.541-2.247-2.323-3.362
			C1457.789,695.283,1458.563,696.404,1459.33,697.531z"/>
		<path fill="#EA4E7A" d="M1452.587,688.026c1.144,1.541,2.267,3.099,3.381,4.665
			C1454.855,691.125,1453.731,689.567,1452.587,688.026z"/>
		<path fill="#EA4E7A" d="M1447.637,467.812c-1.813,2.566-3.639,5.197-5.472,7.874c-12.352,18.036-25.082,38.441-37.237,59.562
			c-9.278,16.123-18.218,32.658-26.397,48.872c-8.47,16.792-16.122,33.233-22.484,48.508c-3.959,9.506-7.419,18.56-10.264,26.963
			c-3.383,9.993-5.9,19.07-7.355,26.891c-86.198-21.117-163.647-1.262-167.42-0.634c-0.411,0.145-0.832,0.618-1.256,1.35
			c-3.805,6.567-7.843,34.51-6.635,43.671c0.224,1.701,0.629,2.758,1.25,2.906c4.069,2.264,8.207,4.463,12.395,6.608
			c28.23,14.463,59.019,26.141,90.473,33.722c25.7,6.194,51.84,9.66,77.383,9.66c12.903,0,25.728-0.426,38.369-1.167
			c2.493-2.803,4.953-5.639,7.395-8.493c22.898-26.758,43.56-55.716,62.204-86.08c26.484-43.101,48.938-88.992,68.117-135.328
			c0,0-29.794,92.06-57.099,151.281l0,0c13.948,21.707,25.141,45.403,33.464,70.127c4.544,13.499,8.222,27.305,11.035,41.26
			c2.113,10.482,3.732,21.047,4.849,31.633c1.232,11.667,1.869,23.357,1.871,34.981c0,0,101.595-38.589,189.89-50.66
			c11.837-62.89-18.908-306.138-203.238-421.182C1488.419,415.747,1468.813,437.851,1447.637,467.812z"/>
		<path fill="#42306F" d="M1264.155,1062.13c4.186,20.898,9.236,44.077,14.754,68.229c7.22,31.598,15.243,64.86,23.185,96.864
			c17.609,70.965,34.813,135.729,41.965,162.389c2.215,8.256,3.466,12.862,3.466,12.862h7.953h58.992h15.741
			c-0.417-3.753-0.965-8.067-1.627-12.862c-10.435-75.513-49.603-271.91-61.875-328.456L1264.155,1062.13z"/>
		<path fill="#5A3D90" d="M1514.825,881.98c-81.04,15.691-164.621,43.979-231.944,72.115c-1.332,0.557-2.653,1.113-3.972,1.669
			c-54.649,23.054-98.131,45.837-120.063,61.326c1.823,108.49,34.723,318.594,43.435,372.522c1.335,8.265,2.103,12.862,2.103,12.862
			h13.716h58.983h9.987c0.683-25.678-3.021-74.249-8.161-126.82c-9.732-99.542-24.612-213.431-24.612-213.431l9.857-0.094
			l102.554-0.973l53.078-0.504c3.141-1.179,6.542-1.829,10.095-1.829h182.598c126.005-52.293,92.234-227.505,92.234-227.505
			C1616.42,843.391,1514.825,881.98,1514.825,881.98z"/>
		<path fill="#323135" d="M1355.478,1402.474c0,0-2.433,3.591-7.252,8.798c-8.318,8.988-23.76,22.795-46.132,31.314
			c-3.137,1.194-6.408,2.285-9.817,3.243c-4.246,1.194-8.701,2.186-13.368,2.916c-0.309,0.049-0.623,0.091-0.934,0.137l0.468,24.299
			h0.466h23.185h28.842l46.371-26.23l-4.282,26.23h42.806l-1.191-61.91l-0.169-8.798H1355.478z"/>
		<path fill="#39383D" d="M1277.252,1411.273l-0.169-8.798H1218.1c0,0-2.291,3.593-6.928,8.798
			c-10.885,12.217-34.707,33.323-72.257,37.757c-8.737,1.029-15.324,8.569-15.324,17.553v6.6h69.967l46.361-26.23l-4.282,26.23
			h42.806l-0.468-24.299L1277.252,1411.273z"/>
		<path fill="#AB2A3F" d="M1366.198,189.103c-11.137,8.159-19.376,20.083-22.248,34.294c-4.272,21.105,8.98,37.758,16.932,47.712
			c10.626-0.396,21.282-2.731,30.755-7.431c17.417,9.736,36.713,15.624,56.648,16.999c-1.085,9.934-1.753,19.938-1.753,29.921
			c0,5.262,0.188,10.516,0.592,15.746H1456v4h-8.519c0.963,9.699,2.707,19.301,5.465,28.698c1.531-12.141,4.514-24.083,7.226-36.085
			c4.233-6.154,8.641-14.01,15.838-14.01h0.145c12.806,0.188,19.141,14.743,19.141,28.259c0,6.263-1.995,22.846-13.959,27.141
			c0.542,3.226,1.318,6.54,2.335,9.954c1.356,0.109,2.703,0.139,4.01,0.139c50.729,0,65.105-79.839,65.105-98.382
			c0-11.339-13.406-60.417-54.604-60.417c-9.309,0-18.812,2.632-27.53,7.955c-7.435-21.326-28.036-45.12-65.724-46.224
			c-0.904-0.026-1.808-0.053-2.732-0.053C1389.017,177.317,1376.394,181.633,1366.198,189.103z"/>
		<path fill="#D6456C" d="M1457.007,694.168c0.782,1.115,1.557,2.236,2.323,3.362c0.365,0.536,0.731,1.072,1.092,1.611
			c0.909,1.355,1.807,2.718,2.694,4.089c0.162,0.251,0.329,0.498,0.49,0.749l0,0c27.305-59.221,57.099-151.281,57.099-151.281
			c-19.18,46.336-41.634,92.228-68.117,135.328c1.144,1.541,2.267,3.099,3.381,4.665
			C1456.317,693.182,1456.661,693.676,1457.007,694.168z"/>
		<path fill="#39383D" d="M1677.888,1058.824h-65.407h-182.598c-3.553,0-6.954,0.649-10.095,1.829
			c-10.886,4.087-18.635,14.587-18.635,26.901v0.613c0,15.867,12.863,28.73,28.73,28.73h28.219h215.036h28.219
			c15.867,0,28.73-12.863,28.73-28.73v-0.613c0-14.619-10.921-26.679-25.048-28.487c-1.206-0.154-2.433-0.243-3.681-0.243H1677.888z
			"/>
		<polygon fill="#FFFFFF" points="1458.101,1116.897 1458.101,1153.629 1518.241,1153.629 1541.426,1153.629 1551.488,1153.629 
			1551.488,1444.311 1541.426,1444.311 1518.241,1444.311 1487.39,1444.311 1487.39,1473.18 1518.241,1473.18 1541.426,1473.18 
			1643.848,1473.18 1643.848,1444.311 1579.75,1444.311 1579.75,1153.629 1673.137,1153.629 1673.137,1116.897 		"/>
		<path fill="#39383D" d="M1781.556,500.039L1781.556,500.039c-23.271,0-42.135,18.865-42.135,42.135v255.963
			c0,17.914,11.184,33.206,26.946,39.302c4.714,1.823,9.832,2.833,15.189,2.833h0c2.28,0,4.516-0.187,6.698-0.536
			c20.086-3.209,35.437-20.609,35.437-41.6V542.175C1823.692,518.904,1804.827,500.039,1781.556,500.039z"/>
		<path fill="#39383D" d="M1398.215,326.343c-0.944-5.113-5.427-9-10.809-9h-5.38c1.423-1.339,2.317-3.235,2.317-5.343
			c0-4.056-3.288-7.343-7.343-7.343s-7.343,3.288-7.343,7.343c0,2.108,0.894,4.004,2.317,5.343h-9.567
			c-2.038,0-3.942,0.567-5.581,1.537c-3.237,1.917-5.419,5.435-5.419,9.463v2c0,0.97,0.139,1.906,0.376,2.803
			c1.244,4.71,5.529,8.197,10.624,8.197h25c6.065,0,11-4.935,11-11h49.075H1456v-4h-8.875H1398.215z M1394.406,330.343
			c0,3.86-3.141,7-7,7h-25c-3.859,0-7-3.14-7-7v-2c0-0.836,0.155-1.635,0.425-2.378c0.182-0.501,0.416-0.976,0.702-1.417
			c1.249-1.926,3.413-3.205,5.873-3.205h25c3.859,0,7,3.14,7,7V330.343z"/>
		<path fill="#39383D" d="M1366.93,296.865c2.456-1.794,5.668-2.824,8.812-2.824c4.45,0,7.991,2.04,9.716,5.596
			c0.346,0.712,1.059,1.127,1.801,1.127c0.293,0,0.591-0.064,0.872-0.201c0.993-0.482,1.408-1.678,0.927-2.672
			c-2.42-4.989-7.273-7.85-13.315-7.85c-3.974,0-8.045,1.31-11.171,3.594c-0.892,0.651-1.087,1.903-0.436,2.794
			C1364.786,297.322,1366.038,297.518,1366.93,296.865z"/>
		<path fill="#EA4E7A" d="M521.973,774.106h74.254c4.772,0,8.641-3.868,8.641-8.641v-2.484h14.971
			c12.258,0,22.231-9.973,22.231-22.23v-47.803c0-12.258-9.973-22.231-22.231-22.231h-14.971v-2.484
			c0-4.772-3.869-8.641-8.641-8.641h-74.254c-4.772,0-8.641,3.868-8.641,8.641v97.232
			C513.333,770.237,517.201,774.106,521.973,774.106z M604.868,751.981v-70.265h14.971c6.193,0,11.231,5.038,11.231,11.231v47.803
			c0,6.192-5.038,11.23-11.231,11.23H604.868z"/>
		<rect x="448.308" y="774.106" fill="#21234C" width="314.301" height="41.26"/>
	</g>
	<path fill="#79619C" d="M0,1426.582h303.158c13.315,0,24.108-10.793,24.108-24.108l0,0c0-13.315-10.793-24.108-24.108-24.108H0
		V1426.582z"/>
	<g>
		<rect x="225.02" fill="#323135" width="45.253" height="1402.899"/>
		<path fill="#39383D" d="M45.253,0H0v92.755h110.961c5.037,0,9.121,4.084,9.121,9.121c0,5.038-4.084,9.121-9.121,9.121H0v35.225
			h110.961c5.037,0,9.121,4.084,9.121,9.121l0,0c0,5.038-4.084,9.121-9.121,9.121H0v35.225h110.961c5.037,0,9.121,4.084,9.121,9.121
			c0,5.037-4.084,9.121-9.121,9.121H0v35.225h110.961c5.037,0,9.121,4.084,9.121,9.121s-4.084,9.121-9.121,9.121H0v35.225h110.961
			c5.037,0,9.121,4.084,9.121,9.121c0,5.037-4.084,9.121-9.121,9.121H0v35.225h110.961c5.037,0,9.121,4.084,9.121,9.121
			c0,5.037-4.084,9.121-9.121,9.121H0v35.225h110.961c5.037,0,9.121,4.084,9.121,9.121s-4.084,9.121-9.121,9.121H0v35.225h110.961
			c5.037,0,9.121,4.084,9.121,9.121c0,5.037-4.084,9.121-9.121,9.121H0v35.225h110.961c5.037,0,9.121,4.084,9.121,9.121
			c0,5.038-4.084,9.121-9.121,9.121H0v35.225h110.961c5.037,0,9.121,4.084,9.121,9.121s-4.084,9.121-9.121,9.121H0v35.225h110.961
			c5.037,0,9.121,4.084,9.121,9.121c0,5.038-4.084,9.121-9.121,9.121H0V680.9h110.961c5.037,0,9.121,4.084,9.121,9.121
			s-4.084,9.121-9.121,9.121H0v35.225h110.961c5.037,0,9.121,4.084,9.121,9.121s-4.084,9.121-9.121,9.121H0v35.225h110.961
			c5.037,0,9.121,4.084,9.121,9.121s-4.084,9.121-9.121,9.121H0v35.225h110.961c5.037,0,9.121,4.084,9.121,9.121l0,0
			c0,5.038-4.084,9.121-9.121,9.121H0v50.071h197.315v80.507H0v41.545h197.315v80.507H0v41.545h197.315v80.507H0v168.67h45.253
			H225.02V0H45.253z M136.454,859.546c-5.038,0-9.121-4.084-9.121-9.121s4.084-9.121,9.121-9.121c5.037,0,9.121,4.084,9.121,9.121
			S141.492,859.546,136.454,859.546z M136.454,806.078c-5.038,0-9.121-4.084-9.121-9.121s4.084-9.121,9.121-9.121
			c5.037,0,9.121,4.084,9.121,9.121S141.492,806.078,136.454,806.078z M136.454,752.61c-5.038,0-9.121-4.084-9.121-9.121
			s4.084-9.121,9.121-9.121c5.037,0,9.121,4.084,9.121,9.121S141.492,752.61,136.454,752.61z M136.454,699.143
			c-5.038,0-9.121-4.084-9.121-9.121c0-5.037,4.084-9.121,9.121-9.121c5.037,0,9.121,4.084,9.121,9.121
			C145.575,695.059,141.492,699.143,136.454,699.143z M136.454,645.675c-5.038,0-9.121-4.084-9.121-9.121
			c0-5.037,4.084-9.121,9.121-9.121c5.037,0,9.121,4.084,9.121,9.121C145.575,641.591,141.492,645.675,136.454,645.675z
			 M136.454,592.207c-5.038,0-9.121-4.084-9.121-9.121s4.084-9.121,9.121-9.121c5.037,0,9.121,4.084,9.121,9.121
			S141.492,592.207,136.454,592.207z M136.454,538.739c-5.038,0-9.121-4.084-9.121-9.121c0-5.037,4.084-9.121,9.121-9.121
			c5.037,0,9.121,4.084,9.121,9.121C145.575,534.656,141.492,538.739,136.454,538.739z M136.454,485.271
			c-5.038,0-9.121-4.084-9.121-9.121c0-5.038,4.084-9.121,9.121-9.121c5.037,0,9.121,4.084,9.121,9.121
			C145.575,481.188,141.492,485.271,136.454,485.271z M136.454,431.804c-5.038,0-9.121-4.083-9.121-9.121s4.084-9.121,9.121-9.121
			c5.037,0,9.121,4.084,9.121,9.121S141.492,431.804,136.454,431.804z M136.454,378.336c-5.038,0-9.121-4.084-9.121-9.121
			c0-5.038,4.084-9.121,9.121-9.121c5.037,0,9.121,4.084,9.121,9.121C145.575,374.252,141.492,378.336,136.454,378.336z
			 M136.454,324.868c-5.038,0-9.121-4.084-9.121-9.121c0-5.038,4.084-9.121,9.121-9.121c5.037,0,9.121,4.084,9.121,9.121
			C145.575,320.784,141.492,324.868,136.454,324.868z M136.454,271.4c-5.038,0-9.121-4.083-9.121-9.121s4.084-9.121,9.121-9.121
			c5.037,0,9.121,4.084,9.121,9.121S141.492,271.4,136.454,271.4z M136.454,217.933c-5.038,0-9.121-4.084-9.121-9.121
			c0-5.038,4.084-9.121,9.121-9.121c5.037,0,9.121,4.084,9.121,9.121C145.575,213.849,141.492,217.933,136.454,217.933z
			 M136.454,164.465c-5.038,0-9.121-4.084-9.121-9.121s4.084-9.121,9.121-9.121c5.037,0,9.121,4.084,9.121,9.121
			S141.492,164.465,136.454,164.465z M136.454,110.997c-5.038,0-9.121-4.084-9.121-9.121c0-5.037,4.084-9.121,9.121-9.121
			c5.037,0,9.121,4.084,9.121,9.121C145.575,106.914,141.492,110.997,136.454,110.997z M166.885,859.546
			c-5.037,0-9.121-4.084-9.121-9.121s4.084-9.121,9.121-9.121c5.038,0,9.121,4.084,9.121,9.121S171.922,859.546,166.885,859.546z
			 M166.885,806.078c-5.037,0-9.121-4.084-9.121-9.121s4.084-9.121,9.121-9.121c5.038,0,9.121,4.084,9.121,9.121
			S171.922,806.078,166.885,806.078z M166.885,752.61c-5.037,0-9.121-4.084-9.121-9.121s4.084-9.121,9.121-9.121
			c5.038,0,9.121,4.084,9.121,9.121S171.922,752.61,166.885,752.61z M166.885,699.143c-5.037,0-9.121-4.084-9.121-9.121
			c0-5.037,4.084-9.121,9.121-9.121c5.038,0,9.121,4.084,9.121,9.121C176.006,695.059,171.922,699.143,166.885,699.143z
			 M166.885,645.675c-5.037,0-9.121-4.084-9.121-9.121c0-5.037,4.084-9.121,9.121-9.121c5.038,0,9.121,4.084,9.121,9.121
			C176.006,641.591,171.922,645.675,166.885,645.675z M166.885,592.207c-5.037,0-9.121-4.084-9.121-9.121s4.084-9.121,9.121-9.121
			c5.038,0,9.121,4.084,9.121,9.121S171.922,592.207,166.885,592.207z M166.885,538.739c-5.037,0-9.121-4.084-9.121-9.121
			c0-5.037,4.084-9.121,9.121-9.121c5.038,0,9.121,4.084,9.121,9.121C176.006,534.656,171.922,538.739,166.885,538.739z
			 M166.885,485.271c-5.037,0-9.121-4.084-9.121-9.121c0-5.038,4.084-9.121,9.121-9.121c5.038,0,9.121,4.084,9.121,9.121
			C176.006,481.188,171.922,485.271,166.885,485.271z M166.885,431.804c-5.037,0-9.121-4.083-9.121-9.121s4.084-9.121,9.121-9.121
			c5.038,0,9.121,4.084,9.121,9.121S171.922,431.804,166.885,431.804z M166.885,378.336c-5.037,0-9.121-4.084-9.121-9.121
			c0-5.038,4.084-9.121,9.121-9.121c5.038,0,9.121,4.084,9.121,9.121C176.006,374.252,171.922,378.336,166.885,378.336z
			 M166.885,324.868c-5.037,0-9.121-4.084-9.121-9.121c0-5.038,4.084-9.121,9.121-9.121c5.038,0,9.121,4.084,9.121,9.121
			C176.006,320.784,171.922,324.868,166.885,324.868z M166.885,271.4c-5.037,0-9.121-4.083-9.121-9.121s4.084-9.121,9.121-9.121
			c5.038,0,9.121,4.084,9.121,9.121S171.922,271.4,166.885,271.4z M166.885,217.933c-5.037,0-9.121-4.084-9.121-9.121
			c0-5.038,4.084-9.121,9.121-9.121c5.038,0,9.121,4.084,9.121,9.121C176.006,213.849,171.922,217.933,166.885,217.933z
			 M166.885,164.465c-5.037,0-9.121-4.084-9.121-9.121s4.084-9.121,9.121-9.121c5.038,0,9.121,4.084,9.121,9.121
			S171.922,164.465,166.885,164.465z M166.885,110.997c-5.037,0-9.121-4.084-9.121-9.121c0-5.037,4.084-9.121,9.121-9.121
			c5.038,0,9.121,4.084,9.121,9.121C176.006,106.914,171.922,110.997,166.885,110.997z M197.315,859.546
			c-5.038,0-9.121-4.084-9.121-9.121s4.084-9.121,9.121-9.121c5.038,0,9.121,4.084,9.121,9.121S202.353,859.546,197.315,859.546z
			 M197.315,806.078c-5.038,0-9.121-4.084-9.121-9.121s4.084-9.121,9.121-9.121c5.038,0,9.121,4.084,9.121,9.121
			S202.353,806.078,197.315,806.078z M197.315,752.61c-5.038,0-9.121-4.084-9.121-9.121s4.084-9.121,9.121-9.121
			c5.038,0,9.121,4.084,9.121,9.121S202.353,752.61,197.315,752.61z M197.315,699.143c-5.038,0-9.121-4.084-9.121-9.121
			c0-5.037,4.084-9.121,9.121-9.121c5.038,0,9.121,4.084,9.121,9.121C206.437,695.059,202.353,699.143,197.315,699.143z
			 M197.315,645.675c-5.038,0-9.121-4.084-9.121-9.121c0-5.037,4.084-9.121,9.121-9.121c5.038,0,9.121,4.084,9.121,9.121
			C206.437,641.591,202.353,645.675,197.315,645.675z M197.315,592.207c-5.038,0-9.121-4.084-9.121-9.121s4.084-9.121,9.121-9.121
			c5.038,0,9.121,4.084,9.121,9.121S202.353,592.207,197.315,592.207z M197.315,538.739c-5.038,0-9.121-4.084-9.121-9.121
			c0-5.037,4.084-9.121,9.121-9.121c5.038,0,9.121,4.084,9.121,9.121C206.437,534.656,202.353,538.739,197.315,538.739z
			 M197.315,485.271c-5.038,0-9.121-4.084-9.121-9.121c0-5.038,4.084-9.121,9.121-9.121c5.038,0,9.121,4.084,9.121,9.121
			C206.437,481.188,202.353,485.271,197.315,485.271z M197.315,431.804c-5.038,0-9.121-4.083-9.121-9.121s4.084-9.121,9.121-9.121
			c5.038,0,9.121,4.084,9.121,9.121S202.353,431.804,197.315,431.804z M197.315,378.336c-5.038,0-9.121-4.084-9.121-9.121
			c0-5.038,4.084-9.121,9.121-9.121c5.038,0,9.121,4.084,9.121,9.121C206.437,374.252,202.353,378.336,197.315,378.336z
			 M197.315,324.868c-5.038,0-9.121-4.084-9.121-9.121c0-5.038,4.084-9.121,9.121-9.121c5.038,0,9.121,4.084,9.121,9.121
			C206.437,320.784,202.353,324.868,197.315,324.868z M197.315,271.4c-5.038,0-9.121-4.083-9.121-9.121s4.084-9.121,9.121-9.121
			c5.038,0,9.121,4.084,9.121,9.121S202.353,271.4,197.315,271.4z M197.315,217.933c-5.038,0-9.121-4.084-9.121-9.121
			c0-5.038,4.084-9.121,9.121-9.121c5.038,0,9.121,4.084,9.121,9.121C206.437,213.849,202.353,217.933,197.315,217.933z
			 M197.315,164.465c-5.038,0-9.121-4.084-9.121-9.121s4.084-9.121,9.121-9.121c5.038,0,9.121,4.084,9.121,9.121
			S202.353,164.465,197.315,164.465z M197.315,110.997c-5.038,0-9.121-4.084-9.121-9.121c0-5.037,4.084-9.121,9.121-9.121
			c5.038,0,9.121,4.084,9.121,9.121C206.437,106.914,202.353,110.997,197.315,110.997z"/>
		<path fill="#8E72B1" d="M110.961,110.997c5.037,0,9.121-4.084,9.121-9.121c0-5.037-4.084-9.121-9.121-9.121H0v18.243H110.961z"/>
		<circle fill="#8E72B1" cx="136.454" cy="101.876" r="9.121"/>
		<circle fill="#8E72B1" cx="166.885" cy="101.876" r="9.121"/>
		<circle fill="#8E72B1" cx="197.315" cy="101.876" r="9.121"/>
		<path fill="#8E72B1" d="M110.961,164.465c5.037,0,9.121-4.084,9.121-9.121l0,0c0-5.038-4.084-9.121-9.121-9.121H0v18.243H110.961z
			"/>
		<circle fill="#8E72B1" cx="136.454" cy="155.344" r="9.121"/>
		<circle fill="#8E72B1" cx="166.885" cy="155.344" r="9.121"/>
		<circle fill="#8E72B1" cx="197.315" cy="155.344" r="9.121"/>
		<path fill="#8E72B1" d="M110.961,217.933c5.037,0,9.121-4.084,9.121-9.121c0-5.038-4.084-9.121-9.121-9.121H0v18.243H110.961z"/>
		<circle fill="#8E72B1" cx="136.454" cy="208.812" r="9.121"/>
		<circle fill="#8E72B1" cx="166.885" cy="208.812" r="9.121"/>
		<circle fill="#8E72B1" cx="197.315" cy="208.812" r="9.121"/>
		<path fill="#8E72B1" d="M110.961,271.4c5.037,0,9.121-4.083,9.121-9.121s-4.084-9.121-9.121-9.121H0V271.4H110.961z"/>
		<circle fill="#8E72B1" cx="136.454" cy="262.279" r="9.121"/>
		<circle fill="#8E72B1" cx="166.885" cy="262.279" r="9.121"/>
		<circle fill="#8E72B1" cx="197.315" cy="262.279" r="9.121"/>
		<path fill="#8E72B1" d="M110.961,324.868c5.037,0,9.121-4.084,9.121-9.121c0-5.038-4.084-9.121-9.121-9.121H0v18.242H110.961z"/>
		<circle fill="#8E72B1" cx="136.454" cy="315.747" r="9.121"/>
		<circle fill="#8E72B1" cx="166.885" cy="315.747" r="9.121"/>
		<circle fill="#8E72B1" cx="197.315" cy="315.747" r="9.121"/>
		<path fill="#8E72B1" d="M110.961,378.336c5.037,0,9.121-4.084,9.121-9.121c0-5.038-4.084-9.121-9.121-9.121H0v18.242H110.961z"/>
		<circle fill="#8E72B1" cx="136.454" cy="369.215" r="9.121"/>
		<circle fill="#8E72B1" cx="166.885" cy="369.215" r="9.121"/>
		<circle fill="#8E72B1" cx="197.315" cy="369.215" r="9.121"/>
		<path fill="#8E72B1" d="M110.961,431.804c5.037,0,9.121-4.083,9.121-9.121s-4.084-9.121-9.121-9.121H0v18.242H110.961z"/>
		<circle fill="#8E72B1" cx="136.454" cy="422.683" r="9.121"/>
		<circle fill="#8E72B1" cx="166.885" cy="422.683" r="9.121"/>
		<circle fill="#8E72B1" cx="197.315" cy="422.683" r="9.121"/>
		<path fill="#8E72B1" d="M110.961,485.271c5.037,0,9.121-4.084,9.121-9.121c0-5.038-4.084-9.121-9.121-9.121H0v18.242H110.961z"/>
		<circle fill="#8E72B1" cx="136.454" cy="476.15" r="9.121"/>
		<circle fill="#8E72B1" cx="166.885" cy="476.15" r="9.121"/>
		<circle fill="#8E72B1" cx="197.315" cy="476.15" r="9.121"/>
		<path fill="#8E72B1" d="M110.961,538.739c5.037,0,9.121-4.084,9.121-9.121c0-5.037-4.084-9.121-9.121-9.121H0v18.242H110.961z"/>
		<circle fill="#8E72B1" cx="136.454" cy="529.618" r="9.121"/>
		<circle fill="#8E72B1" cx="166.885" cy="529.618" r="9.121"/>
		<circle fill="#8E72B1" cx="197.315" cy="529.618" r="9.121"/>
		<path fill="#8E72B1" d="M110.961,592.207c5.037,0,9.121-4.084,9.121-9.121s-4.084-9.121-9.121-9.121H0v18.243H110.961z"/>
		<circle fill="#8E72B1" cx="136.454" cy="583.086" r="9.121"/>
		<circle fill="#8E72B1" cx="166.885" cy="583.086" r="9.121"/>
		<circle fill="#8E72B1" cx="197.315" cy="583.086" r="9.121"/>
		<path fill="#8E72B1" d="M110.961,645.675c5.037,0,9.121-4.084,9.121-9.121c0-5.037-4.084-9.121-9.121-9.121H0v18.242H110.961z"/>
		<circle fill="#8E72B1" cx="136.454" cy="636.554" r="9.121"/>
		<circle fill="#8E72B1" cx="166.885" cy="636.554" r="9.121"/>
		<circle fill="#8E72B1" cx="197.315" cy="636.554" r="9.121"/>
		<path fill="#8E72B1" d="M110.961,699.143c5.037,0,9.121-4.084,9.121-9.121s-4.084-9.121-9.121-9.121H0v18.243H110.961z"/>
		<circle fill="#8E72B1" cx="136.454" cy="690.021" r="9.121"/>
		<circle fill="#8E72B1" cx="166.885" cy="690.021" r="9.121"/>
		<circle fill="#8E72B1" cx="197.315" cy="690.021" r="9.121"/>
		<path fill="#8E72B1" d="M110.961,752.61c5.037,0,9.121-4.084,9.121-9.121s-4.084-9.121-9.121-9.121H0v18.243H110.961z"/>
		<circle fill="#8E72B1" cx="136.454" cy="743.489" r="9.121"/>
		<circle fill="#8E72B1" cx="166.885" cy="743.489" r="9.121"/>
		<circle fill="#8E72B1" cx="197.315" cy="743.489" r="9.121"/>
		<path fill="#8E72B1" d="M110.961,806.078c5.037,0,9.121-4.084,9.121-9.121s-4.084-9.121-9.121-9.121H0v18.243H110.961z"/>
		<circle fill="#8E72B1" cx="136.454" cy="796.957" r="9.121"/>
		<circle fill="#8E72B1" cx="166.885" cy="796.957" r="9.121"/>
		<circle fill="#8E72B1" cx="197.315" cy="796.957" r="9.121"/>
		<path fill="#8E72B1" d="M110.961,859.546c5.037,0,9.121-4.084,9.121-9.121l0,0c0-5.038-4.084-9.121-9.121-9.121H0v18.243H110.961z
			"/>
		<circle fill="#8E72B1" cx="136.454" cy="850.425" r="9.121"/>
		<circle fill="#8E72B1" cx="166.885" cy="850.425" r="9.121"/>
		<circle fill="#8E72B1" cx="197.315" cy="850.425" r="9.121"/>
		<path fill="#8E72B1" d="M197.315,990.124v-80.507H0v80.507H197.315z M125.177,923.211c5.037,0,9.121,4.083,9.121,9.121
			s-4.084,9.121-9.121,9.121c-5.038,0-9.121-4.084-9.121-9.121S120.139,923.211,125.177,923.211z M125.177,958.287
			c5.037,0,9.121,4.084,9.121,9.121s-4.084,9.121-9.121,9.121c-5.038,0-9.121-4.083-9.121-9.121S120.139,958.287,125.177,958.287z
			 M94.746,923.211c5.037,0,9.121,4.083,9.121,9.121s-4.084,9.121-9.121,9.121c-5.038,0-9.121-4.084-9.121-9.121
			S89.709,923.211,94.746,923.211z M94.746,958.287c5.037,0,9.121,4.084,9.121,9.121s-4.084,9.121-9.121,9.121
			c-5.038,0-9.121-4.083-9.121-9.121S89.709,958.287,94.746,958.287z M64.315,923.211c5.038,0,9.121,4.083,9.121,9.121
			s-4.084,9.121-9.121,9.121c-5.038,0-9.121-4.084-9.121-9.121S59.278,923.211,64.315,923.211z M64.315,958.287
			c5.038,0,9.121,4.084,9.121,9.121s-4.084,9.121-9.121,9.121c-5.038,0-9.121-4.083-9.121-9.121S59.278,958.287,64.315,958.287z"/>
		<path fill="#8E72B1" d="M197.315,1112.176v-80.507H0v80.507H197.315z M125.177,1045.264c5.037,0,9.121,4.084,9.121,9.121
			c0,5.038-4.084,9.121-9.121,9.121c-5.038,0-9.121-4.084-9.121-9.121C116.056,1049.347,120.139,1045.264,125.177,1045.264z
			 M125.177,1080.339c5.037,0,9.121,4.084,9.121,9.121s-4.084,9.121-9.121,9.121c-5.038,0-9.121-4.083-9.121-9.121
			S120.139,1080.339,125.177,1080.339z M94.746,1045.264c5.037,0,9.121,4.084,9.121,9.121c0,5.038-4.084,9.121-9.121,9.121
			c-5.038,0-9.121-4.084-9.121-9.121C85.625,1049.347,89.709,1045.264,94.746,1045.264z M94.746,1080.339
			c5.037,0,9.121,4.084,9.121,9.121s-4.084,9.121-9.121,9.121c-5.038,0-9.121-4.083-9.121-9.121S89.709,1080.339,94.746,1080.339z
			 M64.315,1045.264c5.038,0,9.121,4.084,9.121,9.121c0,5.038-4.084,9.121-9.121,9.121c-5.038,0-9.121-4.084-9.121-9.121
			C55.194,1049.347,59.278,1045.264,64.315,1045.264z M64.315,1080.339c5.038,0,9.121,4.084,9.121,9.121s-4.084,9.121-9.121,9.121
			c-5.038,0-9.121-4.083-9.121-9.121S59.278,1080.339,64.315,1080.339z"/>
		<path fill="#8E72B1" d="M197.315,1234.229v-80.507H0v80.507H197.315z M125.177,1167.316c5.037,0,9.121,4.084,9.121,9.121
			s-4.084,9.121-9.121,9.121c-5.038,0-9.121-4.084-9.121-9.121S120.139,1167.316,125.177,1167.316z M125.177,1202.392
			c5.037,0,9.121,4.084,9.121,9.121c0,5.038-4.084,9.121-9.121,9.121c-5.038,0-9.121-4.084-9.121-9.121
			C116.056,1206.475,120.139,1202.392,125.177,1202.392z M94.746,1167.316c5.037,0,9.121,4.084,9.121,9.121
			s-4.084,9.121-9.121,9.121c-5.038,0-9.121-4.084-9.121-9.121S89.709,1167.316,94.746,1167.316z M94.746,1202.392
			c5.037,0,9.121,4.084,9.121,9.121c0,5.038-4.084,9.121-9.121,9.121c-5.038,0-9.121-4.084-9.121-9.121
			C85.625,1206.475,89.709,1202.392,94.746,1202.392z M64.315,1167.316c5.038,0,9.121,4.084,9.121,9.121s-4.084,9.121-9.121,9.121
			c-5.038,0-9.121-4.084-9.121-9.121S59.278,1167.316,64.315,1167.316z M64.315,1202.392c5.038,0,9.121,4.084,9.121,9.121
			c0,5.038-4.084,9.121-9.121,9.121c-5.038,0-9.121-4.084-9.121-9.121C55.194,1206.475,59.278,1202.392,64.315,1202.392z"/>
		<circle fill="#39383D" cx="64.315" cy="932.333" r="9.121"/>
		<circle fill="#39383D" cx="94.746" cy="932.333" r="9.121"/>
		<circle fill="#39383D" cx="125.177" cy="932.333" r="9.121"/>
		<circle fill="#39383D" cx="64.315" cy="967.408" r="9.121"/>
		<circle fill="#39383D" cx="94.746" cy="967.408" r="9.121"/>
		<circle fill="#39383D" cx="125.177" cy="967.408" r="9.121"/>
		<circle fill="#39383D" cx="64.315" cy="1054.385" r="9.121"/>
		<circle fill="#39383D" cx="94.746" cy="1054.385" r="9.121"/>
		<circle fill="#39383D" cx="125.177" cy="1054.385" r="9.121"/>
		<circle fill="#39383D" cx="64.315" cy="1089.46" r="9.121"/>
		<circle fill="#39383D" cx="94.746" cy="1089.46" r="9.121"/>
		<circle fill="#39383D" cx="125.177" cy="1089.46" r="9.121"/>
		<circle fill="#39383D" cx="64.315" cy="1176.437" r="9.121"/>
		<circle fill="#39383D" cx="94.746" cy="1176.437" r="9.121"/>
		<circle fill="#39383D" cx="125.177" cy="1176.437" r="9.121"/>
		<circle fill="#39383D" cx="64.315" cy="1211.513" r="9.121"/>
		<circle fill="#39383D" cx="94.746" cy="1211.513" r="9.121"/>
		<circle fill="#39383D" cx="125.177" cy="1211.513" r="9.121"/>
	</g>
	<g>
		<path fill="#79619C" d="M2046.98,1402.899h-45.253v-24.533h-32.884c-13.315,0-24.108,10.793-24.108,24.108v0
			c0,13.314,10.793,24.108,24.108,24.108H2272v-23.684h-45.253H2046.98z"/>
		<polygon fill="#323135" points="2046.98,1402.899 2046.98,0 2001.726,0 2001.726,1378.366 2001.726,1402.899 		"/>
		<path fill="#39383D" d="M2226.747,0H2046.98v1402.899h179.767H2272v-24.533v-144.137h-197.315v-80.507H2272v-41.545h-197.315
			v-80.507H2272v-41.545h-197.315v-80.507H2272v-50.071h-110.961c-5.038,0-9.121-4.084-9.121-9.121l0,0
			c0-5.038,4.083-9.121,9.121-9.121H2272v-35.225h-110.961c-5.038,0-9.121-4.084-9.121-9.121s4.083-9.121,9.121-9.121H2272V752.61
			h-110.961c-5.038,0-9.121-4.084-9.121-9.121l0,0c0-5.038,4.083-9.121,9.121-9.121H2272v-35.225h-110.961
			c-5.038,0-9.121-4.084-9.121-9.121c0-5.037,4.083-9.121,9.121-9.121H2272v-35.225h-110.961c-5.038,0-9.121-4.084-9.121-9.121v0
			c0-5.037,4.083-9.121,9.121-9.121H2272v-35.225h-110.961c-5.038,0-9.121-4.084-9.121-9.121c0-5.037,4.083-9.121,9.121-9.121H2272
			v-35.225h-110.961c-5.038,0-9.121-4.084-9.121-9.121c0-5.037,4.083-9.121,9.121-9.121H2272v-35.225h-110.961
			c-5.038,0-9.121-4.084-9.121-9.121c0-5.038,4.083-9.121,9.121-9.121H2272v-35.225h-110.961c-5.038,0-9.121-4.083-9.121-9.121
			s4.083-9.121,9.121-9.121H2272v-35.225h-110.961c-5.038,0-9.121-4.084-9.121-9.121c0-5.038,4.083-9.121,9.121-9.121H2272v-35.225
			h-110.961c-5.038,0-9.121-4.083-9.121-9.121s4.083-9.121,9.121-9.121H2272V271.4h-110.961c-5.038,0-9.121-4.083-9.121-9.121
			s4.083-9.121,9.121-9.121H2272v-35.225h-110.961c-5.038,0-9.121-4.084-9.121-9.121s4.083-9.121,9.121-9.121H2272v-35.225h-110.961
			c-5.038,0-9.121-4.084-9.121-9.121s4.083-9.121,9.121-9.121H2272v-35.225h-110.961c-5.038,0-9.121-4.084-9.121-9.121
			c0-5.037,4.083-9.121,9.121-9.121H2272V0H2226.747z M2074.685,859.546c-5.038,0-9.121-4.084-9.121-9.121s4.084-9.121,9.121-9.121
			s9.121,4.084,9.121,9.121S2079.722,859.546,2074.685,859.546z M2074.685,806.078c-5.038,0-9.121-4.084-9.121-9.121
			s4.084-9.121,9.121-9.121s9.121,4.084,9.121,9.121S2079.722,806.078,2074.685,806.078z M2074.685,752.61
			c-5.038,0-9.121-4.084-9.121-9.121s4.084-9.121,9.121-9.121s9.121,4.084,9.121,9.121S2079.722,752.61,2074.685,752.61z
			 M2074.685,699.143c-5.038,0-9.121-4.084-9.121-9.121c0-5.037,4.084-9.121,9.121-9.121s9.121,4.084,9.121,9.121
			C2083.806,695.059,2079.722,699.143,2074.685,699.143z M2074.685,645.675c-5.038,0-9.121-4.084-9.121-9.121
			c0-5.037,4.084-9.121,9.121-9.121s9.121,4.084,9.121,9.121C2083.806,641.591,2079.722,645.675,2074.685,645.675z
			 M2074.685,592.207c-5.038,0-9.121-4.084-9.121-9.121c0-5.037,4.084-9.121,9.121-9.121s9.121,4.084,9.121,9.121
			C2083.806,588.123,2079.722,592.207,2074.685,592.207z M2074.685,538.739c-5.038,0-9.121-4.084-9.121-9.121
			c0-5.037,4.084-9.121,9.121-9.121s9.121,4.084,9.121,9.121C2083.806,534.656,2079.722,538.739,2074.685,538.739z
			 M2074.685,485.271c-5.038,0-9.121-4.084-9.121-9.121c0-5.038,4.084-9.121,9.121-9.121s9.121,4.084,9.121,9.121
			C2083.806,481.188,2079.722,485.271,2074.685,485.271z M2074.685,431.804c-5.038,0-9.121-4.083-9.121-9.121
			s4.084-9.121,9.121-9.121s9.121,4.084,9.121,9.121S2079.722,431.804,2074.685,431.804z M2074.685,378.336
			c-5.038,0-9.121-4.084-9.121-9.121c0-5.038,4.084-9.121,9.121-9.121s9.121,4.084,9.121,9.121
			C2083.806,374.252,2079.722,378.336,2074.685,378.336z M2074.685,324.868c-5.038,0-9.121-4.083-9.121-9.121
			s4.084-9.121,9.121-9.121s9.121,4.084,9.121,9.121S2079.722,324.868,2074.685,324.868z M2074.685,271.4
			c-5.038,0-9.121-4.083-9.121-9.121s4.084-9.121,9.121-9.121s9.121,4.084,9.121,9.121S2079.722,271.4,2074.685,271.4z
			 M2074.685,217.933c-5.038,0-9.121-4.084-9.121-9.121s4.084-9.121,9.121-9.121s9.121,4.084,9.121,9.121
			S2079.722,217.933,2074.685,217.933z M2074.685,164.465c-5.038,0-9.121-4.084-9.121-9.121s4.084-9.121,9.121-9.121
			s9.121,4.084,9.121,9.121S2079.722,164.465,2074.685,164.465z M2074.685,110.997c-5.038,0-9.121-4.084-9.121-9.121
			c0-5.037,4.084-9.121,9.121-9.121s9.121,4.084,9.121,9.121C2083.806,106.914,2079.722,110.997,2074.685,110.997z
			 M2105.115,859.546c-5.038,0-9.121-4.084-9.121-9.121s4.083-9.121,9.121-9.121s9.121,4.084,9.121,9.121
			S2110.153,859.546,2105.115,859.546z M2105.115,806.078c-5.038,0-9.121-4.084-9.121-9.121s4.083-9.121,9.121-9.121
			s9.121,4.084,9.121,9.121S2110.153,806.078,2105.115,806.078z M2105.115,752.61c-5.038,0-9.121-4.084-9.121-9.121
			s4.083-9.121,9.121-9.121s9.121,4.084,9.121,9.121S2110.153,752.61,2105.115,752.61z M2105.115,699.143
			c-5.038,0-9.121-4.084-9.121-9.121c0-5.037,4.083-9.121,9.121-9.121s9.121,4.084,9.121,9.121
			C2114.237,695.059,2110.153,699.143,2105.115,699.143z M2105.115,645.675c-5.038,0-9.121-4.084-9.121-9.121
			c0-5.037,4.083-9.121,9.121-9.121s9.121,4.084,9.121,9.121C2114.237,641.591,2110.153,645.675,2105.115,645.675z
			 M2105.115,592.207c-5.038,0-9.121-4.084-9.121-9.121c0-5.037,4.083-9.121,9.121-9.121s9.121,4.084,9.121,9.121
			C2114.237,588.123,2110.153,592.207,2105.115,592.207z M2105.115,538.739c-5.038,0-9.121-4.084-9.121-9.121
			c0-5.037,4.083-9.121,9.121-9.121s9.121,4.084,9.121,9.121C2114.237,534.656,2110.153,538.739,2105.115,538.739z
			 M2105.115,485.271c-5.038,0-9.121-4.084-9.121-9.121c0-5.038,4.083-9.121,9.121-9.121s9.121,4.084,9.121,9.121
			C2114.237,481.188,2110.153,485.271,2105.115,485.271z M2105.115,431.804c-5.038,0-9.121-4.083-9.121-9.121
			s4.083-9.121,9.121-9.121s9.121,4.084,9.121,9.121S2110.153,431.804,2105.115,431.804z M2105.115,378.336
			c-5.038,0-9.121-4.084-9.121-9.121c0-5.038,4.083-9.121,9.121-9.121s9.121,4.084,9.121,9.121
			C2114.237,374.252,2110.153,378.336,2105.115,378.336z M2105.115,324.868c-5.038,0-9.121-4.083-9.121-9.121
			s4.083-9.121,9.121-9.121s9.121,4.084,9.121,9.121S2110.153,324.868,2105.115,324.868z M2105.115,271.4
			c-5.038,0-9.121-4.083-9.121-9.121s4.083-9.121,9.121-9.121s9.121,4.084,9.121,9.121S2110.153,271.4,2105.115,271.4z
			 M2105.115,217.933c-5.038,0-9.121-4.084-9.121-9.121s4.083-9.121,9.121-9.121s9.121,4.084,9.121,9.121
			S2110.153,217.933,2105.115,217.933z M2105.115,164.465c-5.038,0-9.121-4.084-9.121-9.121s4.083-9.121,9.121-9.121
			s9.121,4.084,9.121,9.121S2110.153,164.465,2105.115,164.465z M2105.115,110.997c-5.038,0-9.121-4.084-9.121-9.121
			c0-5.037,4.083-9.121,9.121-9.121s9.121,4.084,9.121,9.121C2114.237,106.914,2110.153,110.997,2105.115,110.997z
			 M2135.546,859.546c-5.037,0-9.121-4.084-9.121-9.121s4.084-9.121,9.121-9.121c5.038,0,9.121,4.084,9.121,9.121
			S2140.583,859.546,2135.546,859.546z M2135.546,806.078c-5.037,0-9.121-4.084-9.121-9.121s4.084-9.121,9.121-9.121
			c5.038,0,9.121,4.084,9.121,9.121S2140.583,806.078,2135.546,806.078z M2135.546,752.61c-5.037,0-9.121-4.084-9.121-9.121
			s4.084-9.121,9.121-9.121c5.038,0,9.121,4.084,9.121,9.121S2140.583,752.61,2135.546,752.61z M2135.546,699.143
			c-5.037,0-9.121-4.084-9.121-9.121c0-5.037,4.084-9.121,9.121-9.121c5.038,0,9.121,4.084,9.121,9.121
			C2144.667,695.059,2140.583,699.143,2135.546,699.143z M2135.546,645.675c-5.037,0-9.121-4.084-9.121-9.121
			c0-5.037,4.084-9.121,9.121-9.121c5.038,0,9.121,4.084,9.121,9.121C2144.667,641.591,2140.583,645.675,2135.546,645.675z
			 M2135.546,592.207c-5.037,0-9.121-4.084-9.121-9.121c0-5.037,4.084-9.121,9.121-9.121c5.038,0,9.121,4.084,9.121,9.121
			C2144.667,588.123,2140.583,592.207,2135.546,592.207z M2135.546,538.739c-5.037,0-9.121-4.084-9.121-9.121
			c0-5.037,4.084-9.121,9.121-9.121c5.038,0,9.121,4.084,9.121,9.121C2144.667,534.656,2140.583,538.739,2135.546,538.739z
			 M2135.546,485.271c-5.037,0-9.121-4.084-9.121-9.121c0-5.038,4.084-9.121,9.121-9.121c5.038,0,9.121,4.084,9.121,9.121
			C2144.667,481.188,2140.583,485.271,2135.546,485.271z M2135.546,431.804c-5.037,0-9.121-4.083-9.121-9.121
			s4.084-9.121,9.121-9.121c5.038,0,9.121,4.084,9.121,9.121S2140.583,431.804,2135.546,431.804z M2135.546,378.336
			c-5.037,0-9.121-4.084-9.121-9.121c0-5.038,4.084-9.121,9.121-9.121c5.038,0,9.121,4.084,9.121,9.121
			C2144.667,374.252,2140.583,378.336,2135.546,378.336z M2135.546,324.868c-5.037,0-9.121-4.083-9.121-9.121
			s4.084-9.121,9.121-9.121c5.038,0,9.121,4.084,9.121,9.121S2140.583,324.868,2135.546,324.868z M2135.546,271.4
			c-5.037,0-9.121-4.083-9.121-9.121s4.084-9.121,9.121-9.121c5.038,0,9.121,4.084,9.121,9.121S2140.583,271.4,2135.546,271.4z
			 M2135.546,217.933c-5.037,0-9.121-4.084-9.121-9.121s4.084-9.121,9.121-9.121c5.038,0,9.121,4.084,9.121,9.121
			S2140.583,217.933,2135.546,217.933z M2135.546,164.465c-5.037,0-9.121-4.084-9.121-9.121s4.084-9.121,9.121-9.121
			c5.038,0,9.121,4.084,9.121,9.121S2140.583,164.465,2135.546,164.465z M2135.546,110.997c-5.037,0-9.121-4.084-9.121-9.121
			c0-5.037,4.084-9.121,9.121-9.121c5.038,0,9.121,4.084,9.121,9.121C2144.667,106.914,2140.583,110.997,2135.546,110.997z"/>
		<path fill="#8E72B1" d="M2161.039,92.755c-5.038,0-9.121,4.084-9.121,9.121c0,5.038,4.083,9.121,9.121,9.121H2272V92.755H2161.039
			z"/>
		<circle fill="#8E72B1" cx="2135.546" cy="101.876" r="9.121"/>
		<circle fill="#8E72B1" cx="2105.115" cy="101.876" r="9.121"/>
		<circle fill="#8E72B1" cx="2074.685" cy="101.876" r="9.121"/>
		<path fill="#8E72B1" d="M2161.039,146.222c-5.038,0-9.121,4.084-9.121,9.121s4.083,9.121,9.121,9.121H2272v-18.243H2161.039z"/>
		<circle fill="#8E72B1" cx="2135.546" cy="155.344" r="9.121"/>
		<circle fill="#8E72B1" cx="2105.115" cy="155.344" r="9.121"/>
		<circle fill="#8E72B1" cx="2074.685" cy="155.344" r="9.121"/>
		<path fill="#8E72B1" d="M2161.039,199.69c-5.038,0-9.121,4.084-9.121,9.121s4.083,9.121,9.121,9.121H2272V199.69H2161.039z"/>
		<circle fill="#8E72B1" cx="2135.546" cy="208.812" r="9.121"/>
		<circle fill="#8E72B1" cx="2105.115" cy="208.812" r="9.121"/>
		<circle fill="#8E72B1" cx="2074.685" cy="208.812" r="9.121"/>
		<path fill="#8E72B1" d="M2161.039,253.158c-5.038,0-9.121,4.084-9.121,9.121s4.083,9.121,9.121,9.121H2272v-18.242H2161.039z"/>
		<circle fill="#8E72B1" cx="2135.546" cy="262.279" r="9.121"/>
		<circle fill="#8E72B1" cx="2105.115" cy="262.279" r="9.121"/>
		<circle fill="#8E72B1" cx="2074.685" cy="262.279" r="9.121"/>
		<path fill="#8E72B1" d="M2161.039,306.626c-5.038,0-9.121,4.084-9.121,9.121s4.083,9.121,9.121,9.121H2272v-18.242H2161.039z"/>
		<circle fill="#8E72B1" cx="2135.546" cy="315.747" r="9.121"/>
		<circle fill="#8E72B1" cx="2105.115" cy="315.747" r="9.121"/>
		<circle fill="#8E72B1" cx="2074.685" cy="315.747" r="9.121"/>
		<path fill="#8E72B1" d="M2161.039,360.094c-5.038,0-9.121,4.084-9.121,9.121c0,5.037,4.083,9.121,9.121,9.121H2272v-18.242
			H2161.039z"/>
		<circle fill="#8E72B1" cx="2135.546" cy="369.215" r="9.121"/>
		<circle fill="#8E72B1" cx="2105.115" cy="369.215" r="9.121"/>
		<circle fill="#8E72B1" cx="2074.685" cy="369.215" r="9.121"/>
		<path fill="#8E72B1" d="M2161.039,413.561c-5.038,0-9.121,4.084-9.121,9.121s4.083,9.121,9.121,9.121H2272v-18.242H2161.039z"/>
		<circle fill="#8E72B1" cx="2135.546" cy="422.683" r="9.121"/>
		<circle fill="#8E72B1" cx="2105.115" cy="422.683" r="9.121"/>
		<circle fill="#8E72B1" cx="2074.685" cy="422.683" r="9.121"/>
		<path fill="#8E72B1" d="M2161.039,467.029c-5.038,0-9.121,4.084-9.121,9.121c0,5.037,4.083,9.121,9.121,9.121H2272v-18.242
			H2161.039z"/>
		<circle fill="#8E72B1" cx="2135.546" cy="476.15" r="9.121"/>
		<circle fill="#8E72B1" cx="2105.115" cy="476.15" r="9.121"/>
		<circle fill="#8E72B1" cx="2074.685" cy="476.15" r="9.121"/>
		<path fill="#8E72B1" d="M2161.039,520.497c-5.038,0-9.121,4.084-9.121,9.121c0,5.038,4.083,9.121,9.121,9.121H2272v-18.242
			H2161.039z"/>
		<circle fill="#8E72B1" cx="2135.546" cy="529.618" r="9.121"/>
		<circle fill="#8E72B1" cx="2105.115" cy="529.618" r="9.121"/>
		<circle fill="#8E72B1" cx="2074.685" cy="529.618" r="9.121"/>
		<path fill="#8E72B1" d="M2161.039,573.964c-5.038,0-9.121,4.084-9.121,9.121c0,5.038,4.083,9.121,9.121,9.121H2272v-18.243
			H2161.039z"/>
		<circle fill="#8E72B1" cx="2135.546" cy="583.086" r="9.121"/>
		<circle fill="#8E72B1" cx="2105.115" cy="583.086" r="9.121"/>
		<circle fill="#8E72B1" cx="2074.685" cy="583.086" r="9.121"/>
		<path fill="#8E72B1" d="M2161.039,627.432c-5.038,0-9.121,4.084-9.121,9.121v0c0,5.037,4.083,9.121,9.121,9.121H2272v-18.242
			H2161.039z"/>
		<circle fill="#8E72B1" cx="2135.546" cy="636.554" r="9.121"/>
		<circle fill="#8E72B1" cx="2105.115" cy="636.554" r="9.121"/>
		<circle fill="#8E72B1" cx="2074.685" cy="636.554" r="9.121"/>
		<path fill="#8E72B1" d="M2161.039,680.9c-5.038,0-9.121,4.084-9.121,9.121c0,5.038,4.083,9.121,9.121,9.121H2272V680.9H2161.039z"
			/>
		<circle fill="#8E72B1" cx="2135.546" cy="690.021" r="9.121"/>
		<circle fill="#8E72B1" cx="2105.115" cy="690.021" r="9.121"/>
		<circle fill="#8E72B1" cx="2074.685" cy="690.021" r="9.121"/>
		<path fill="#8E72B1" d="M2161.039,734.368c-5.038,0-9.121,4.084-9.121,9.121l0,0c0,5.038,4.083,9.121,9.121,9.121H2272v-18.243
			H2161.039z"/>
		<circle fill="#8E72B1" cx="2135.546" cy="743.489" r="9.121"/>
		<circle fill="#8E72B1" cx="2105.115" cy="743.489" r="9.121"/>
		<circle fill="#8E72B1" cx="2074.685" cy="743.489" r="9.121"/>
		<path fill="#8E72B1" d="M2161.039,787.835c-5.038,0-9.121,4.084-9.121,9.121s4.083,9.121,9.121,9.121H2272v-18.243H2161.039z"/>
		<circle fill="#8E72B1" cx="2135.546" cy="796.957" r="9.121"/>
		<circle fill="#8E72B1" cx="2105.115" cy="796.957" r="9.121"/>
		<circle fill="#8E72B1" cx="2074.685" cy="796.957" r="9.121"/>
		<path fill="#8E72B1" d="M2161.039,841.303c-5.038,0-9.121,4.084-9.121,9.121l0,0c0,5.038,4.083,9.121,9.121,9.121H2272v-18.243
			H2161.039z"/>
		<circle fill="#8E72B1" cx="2135.546" cy="850.425" r="9.121"/>
		<circle fill="#8E72B1" cx="2105.115" cy="850.425" r="9.121"/>
		<circle fill="#8E72B1" cx="2074.685" cy="850.425" r="9.121"/>
		<path fill="#8E72B1" d="M2074.685,909.617v80.507H2272v-80.507H2074.685z M2146.823,976.529c-5.038,0-9.121-4.083-9.121-9.121
			s4.084-9.121,9.121-9.121c5.037,0,9.121,4.084,9.121,9.121S2151.861,976.529,2146.823,976.529z M2146.823,941.454
			c-5.038,0-9.121-4.084-9.121-9.121s4.084-9.121,9.121-9.121c5.037,0,9.121,4.083,9.121,9.121S2151.861,941.454,2146.823,941.454z
			 M2177.254,976.529c-5.038,0-9.121-4.083-9.121-9.121s4.084-9.121,9.121-9.121s9.121,4.084,9.121,9.121
			S2182.292,976.529,2177.254,976.529z M2177.254,941.454c-5.038,0-9.121-4.084-9.121-9.121s4.084-9.121,9.121-9.121
			s9.121,4.083,9.121,9.121S2182.292,941.454,2177.254,941.454z M2207.685,976.529c-5.038,0-9.121-4.083-9.121-9.121
			s4.084-9.121,9.121-9.121s9.121,4.084,9.121,9.121S2212.722,976.529,2207.685,976.529z M2207.685,941.454
			c-5.038,0-9.121-4.084-9.121-9.121s4.084-9.121,9.121-9.121s9.121,4.083,9.121,9.121S2212.722,941.454,2207.685,941.454z"/>
		<path fill="#8E72B1" d="M2074.685,1031.669v80.507H2272v-80.507H2074.685z M2146.823,1098.582c-5.038,0-9.121-4.084-9.121-9.121
			s4.084-9.121,9.121-9.121c5.037,0,9.121,4.084,9.121,9.121S2151.861,1098.582,2146.823,1098.582z M2146.823,1063.506
			c-5.038,0-9.121-4.084-9.121-9.121c0-5.037,4.084-9.121,9.121-9.121c5.037,0,9.121,4.084,9.121,9.121
			C2155.944,1059.422,2151.861,1063.506,2146.823,1063.506z M2177.254,1098.582c-5.038,0-9.121-4.084-9.121-9.121
			s4.084-9.121,9.121-9.121s9.121,4.084,9.121,9.121S2182.292,1098.582,2177.254,1098.582z M2177.254,1063.506
			c-5.038,0-9.121-4.084-9.121-9.121c0-5.037,4.084-9.121,9.121-9.121s9.121,4.084,9.121,9.121
			C2186.375,1059.422,2182.292,1063.506,2177.254,1063.506z M2207.685,1098.582c-5.038,0-9.121-4.084-9.121-9.121
			s4.084-9.121,9.121-9.121s9.121,4.084,9.121,9.121S2212.722,1098.582,2207.685,1098.582z M2207.685,1063.506
			c-5.038,0-9.121-4.084-9.121-9.121c0-5.037,4.084-9.121,9.121-9.121s9.121,4.084,9.121,9.121
			C2216.806,1059.422,2212.722,1063.506,2207.685,1063.506z"/>
		<path fill="#8E72B1" d="M2074.685,1153.721v80.507H2272v-80.507H2074.685z M2146.823,1220.634c-5.038,0-9.121-4.084-9.121-9.121
			c0-5.037,4.084-9.121,9.121-9.121c5.037,0,9.121,4.084,9.121,9.121C2155.944,1216.55,2151.861,1220.634,2146.823,1220.634z
			 M2146.823,1185.559c-5.038,0-9.121-4.084-9.121-9.121s4.084-9.121,9.121-9.121c5.037,0,9.121,4.084,9.121,9.121
			S2151.861,1185.559,2146.823,1185.559z M2177.254,1220.634c-5.038,0-9.121-4.084-9.121-9.121c0-5.037,4.084-9.121,9.121-9.121
			s9.121,4.084,9.121,9.121C2186.375,1216.55,2182.292,1220.634,2177.254,1220.634z M2177.254,1185.559
			c-5.038,0-9.121-4.084-9.121-9.121s4.084-9.121,9.121-9.121s9.121,4.084,9.121,9.121S2182.292,1185.559,2177.254,1185.559z
			 M2207.685,1220.634c-5.038,0-9.121-4.084-9.121-9.121c0-5.037,4.084-9.121,9.121-9.121s9.121,4.084,9.121,9.121
			C2216.806,1216.55,2212.722,1220.634,2207.685,1220.634z M2207.685,1185.559c-5.038,0-9.121-4.084-9.121-9.121
			s4.084-9.121,9.121-9.121s9.121,4.084,9.121,9.121S2212.722,1185.559,2207.685,1185.559z"/>
		<circle fill="#39383D" cx="2207.685" cy="932.333" r="9.121"/>
		<circle fill="#39383D" cx="2177.254" cy="932.333" r="9.121"/>
		<circle fill="#39383D" cx="2146.823" cy="932.333" r="9.121"/>
		<circle fill="#39383D" cx="2207.685" cy="967.408" r="9.121"/>
		<circle fill="#39383D" cx="2177.254" cy="967.408" r="9.121"/>
		<circle fill="#39383D" cx="2146.823" cy="967.408" r="9.121"/>
		<circle fill="#39383D" cx="2207.685" cy="1054.385" r="9.121"/>
		<circle fill="#39383D" cx="2177.254" cy="1054.385" r="9.121"/>
		<circle fill="#39383D" cx="2146.823" cy="1054.385" r="9.121"/>
		<circle fill="#39383D" cx="2207.685" cy="1089.46" r="9.121"/>
		<circle fill="#39383D" cx="2177.254" cy="1089.46" r="9.121"/>
		<circle fill="#39383D" cx="2146.823" cy="1089.46" r="9.121"/>
		<circle fill="#39383D" cx="2207.685" cy="1176.437" r="9.121"/>
		<circle fill="#39383D" cx="2177.254" cy="1176.437" r="9.121"/>
		<circle fill="#39383D" cx="2146.823" cy="1176.437" r="9.121"/>
		<circle fill="#39383D" cx="2207.685" cy="1211.513" r="9.121"/>
		<circle fill="#39383D" cx="2177.254" cy="1211.513" r="9.121"/>
		<circle fill="#39383D" cx="2146.823" cy="1211.513" r="9.121"/>
	</g>
</g>
</svg>
